<svg id="Capa_1" data-name="Capa 1" xmlns="http://www.w3.org/2000/svg" viewBox="0 0 873.4 571.3"><defs><style>.cls-1{fill:#fff;}</style></defs><path class="cls-1" d="M469.6,374.8c.6-11.5-.5-21.5,1-31.5.5-3.6-1.6-3.3-3.9-2.8L425,348.6c-17.1,3.2-34.4,6-51.9,7.3-8.3.6-16.6.6-24.5-2.7-10.5-4.3-16.5-13.1-16.6-24.5,0-2.5-.1-5,.1-7.5.4-5.6-.5-10.4-4.8-14.9s-4.9-11.1-4.1-17.4c.3-2.8.6-6,2.1-8.2,7.1-10.6,6.7-22.6,7.4-34.4.2-3.3-.7-5.3-3.3-7.5-15.5-13.3-24.3-35-7.7-55.6a13.7,13.7,0,0,0,3.3-9c1.3-25.9,21.2-47.8,46.6-51.2a7.2,7.2,0,0,0,5.3-3.1C387.4,105.4,402,98,419.7,96.8a16.2,16.2,0,0,0,8.5-2.5c8.5-5.6,17.4-6.2,26.4-1.2a6.4,6.4,0,0,0,5.7.5c15.6-5.5,31.4-5,47.4-2.5,2.5.4,4.3.2,6.3-1.6A18.1,18.1,0,0,1,529.3,85c12.5,2.2,25.1,4.4,36.5,9.9,6.8,3.3,13.6,6.2,20.6,8.9a11.6,11.6,0,0,0,5.8,1.1c25.6-1.5,43.7,11.4,58.2,30.8a21.7,21.7,0,0,0,7.2,6.6c13.5,7.3,22.3,18.2,25.7,33.3,1.2,5.2,2.7,10.3,4,15.5a31.3,31.3,0,0,1-1.3,19.6,28.7,28.7,0,0,0-1.9,11.2c0,10.3-.1,20.7-.1,31,0,5.7,2.6,10.9,3.5,16.5,1.8,11.8,1,22.7-7.8,31.6a6,6,0,0,0-1.6,3.6c-3.8,40.8-27.2,67.1-62.6,84.5-23.5,11.5-48.8,17.4-74.6,21.1-17.2,2.4-34.5,3.1-51.8,3.4a40.1,40.1,0,0,1-6-.1c-8.8-.9-13.9-6.4-13.9-15.2-.1-4.2.3-8.3.4-12.5Zm7.7,4.4h-.2v15.5c0,8.6,1.5,10,10.2,10.1a362.3,362.3,0,0,0,49.9-3c25.2-3.3,49.8-9,72.9-19.9,17.8-8.6,33.5-19.9,44.9-36.4A82.8,82.8,0,0,0,669,309c.2-1.3,1.3-3.7-1.1-3.4-4,.3-8.3-.5-11.4,3.5-9.6,12.5-22.5,20.1-37.6,24a16.7,16.7,0,0,0-6,2.5c-14.3,9.6-30.4,14.7-47.3,17.8-10.8,1.9-21.8,1.3-32.7,3.4-17.5,3.4-35.1,6.6-52.9,1.4-2.5-.7-2.8.5-2.8,2.5C477.3,366.9,477.3,373.1,477.3,379.2Zm2.2-68.4h.7c0,4.9.2,9.7-.1,14.5s1.4,4.9,5,4.7c6.9-.4,13.9-.3,20.9-1,33.9-3.1,66.6-10.5,98-23.8,26.6-11.3,50.2-26.8,69.1-48.9,1.8-2,3.2-4.1,3.1-7-.1-7.4,0-14.7-.1-22,0-1.1.5-2.6-.7-3.2s-2.1.7-3.1,1.3c-12,6.8-22.5,15.5-32.8,24.9-13.4,12.3-30.1,19.4-47.4,24.8a20.6,20.6,0,0,0-5.5,2.3c-21.4,14.2-44.2,22.3-70.3,16.7-11.3-2.4-22.9-.3-34.3-1.5-2.7-.3-2.5,1.5-2.5,3.2ZM339.7,253.7c0,7.9-.7,15.7,6.7,21.8s15.6,7.2,25.1,5.6c31.6-5.4,63.4-10.2,95.1-14.9,3.3-.5,4.5-2,5.3-4.8a96.1,96.1,0,0,1,7.5-17.4c4.4-7.9,8.8-15.7,13.3-23.5,1.8-3,1.1-4-2.4-4.1-6.3-.3-12.2,1.4-18.2,2.8-23.2,5.2-47,6.7-70.2,12.1-17.4,4-35.4,3.8-53,6.9-9.8,1.8-8.3.1-8.9,9.5Zm146.9-44.6c-.7-.5-1.3-1.1-2-1.5-12.3-7.4-22.9-17-30.2-29.3-3.7-6.2-7.7-9.1-14.6-8.6-.2.1-.3,0-.5,0-2.6-.6-3.3.3-2.7,2.9a59.6,59.6,0,0,1,1.5,19.3c-1,12.6-6.6,18.5-18.5,18.2-14.6-.3-28.1-5.1-40.1-13.5a21,21,0,0,1-9.2-21.3c.7-4.4-1.2-4.3-4.2-4.1-10.6.8-20.4,4.4-29.9,9.1s-13.3,12-15,21.1c-2.5,13.1,4.9,22.5,13.1,31.4,1,1.1,2.4.9,3.7.6,24.2-4.3,48.8-5.4,72.9-10.7S461.4,214.9,486.6,209.1Zm92-99.7c1.5,8.6-.8,15.9-4.5,22.7-8.1,14.8-18.6,27.3-35,33.3-1.1.4-2.4.7-2.2,2.2s1,1.2,1.9,1.1c6.5,0,12.4,2.2,18.4,4.1,2.1.7,3.3.2,4.3-1.8,9.9-19.8,26.9-30.9,47.1-37.6,16.1-5.3,32,4.4,34,21.1a293.2,293.2,0,0,1,1.7,33.8c0,11.1-6.9,19.4-17.2,22.7-7.9,2.4-15.8.8-23.7-.3-1.4-.2-3.6-1.6-4,1.1s1.9,1.9,3.3,2a76.7,76.7,0,0,1,43.1,16.6c1.2,1,2.3,1.8,3.9.6,6.8-5,14.7-8.4,21.3-13.9s10.1-12.4,8.9-21c-1.6-10.7-4.1-21.3-8.7-31.1-1.5-3.2-3.4-6.5-6.4-8.2-13-7.4-22.3-18.5-32-29.4a24.3,24.3,0,0,0-3-2.6c-8-6-16.4-11.1-26.6-11.7C595,112.5,586.5,114.1,578.6,109.4ZM472.8,314.3c-.2-3.1-.5-7.4-.6-11.7-.1-2.5-.7-3.8-3.6-2.9-11.3,3.3-23,3.6-34.7,3.5a45.5,45.5,0,0,0-14.7,2.1c-9.6,3.1-19.5,4.1-29.5,4.9-6.8.6-13.8.1-20.2,2.3a59.6,59.6,0,0,1-18.6,2.8c-3.6.1-8.1-3.1-10.2.2s-.6,7.1-.6,10.7c-.1,11.1,4.4,16.8,15.1,19.8a34.7,34.7,0,0,0,7.8,1,132.3,132.3,0,0,0,24.4-1.5c24.6-3.4,48.9-7.9,73.2-12.7,12.3-2.5,12.3-2.5,12.2-14.8Zm205.6-50.6c-1.9,0-2.5,1.2-3.2,2-17,18.4-37.3,32.3-59.9,42.5a327,327,0,0,1-130.6,29c-4.6,0-6.1,1.7-6.5,5.8s.7,7.2,7.1,8.6c9.5,2.2,19.3,2,28.8.7,15-2.1,29.9-4.3,45-5.7a103.7,103.7,0,0,0,48.6-16.5,30.7,30.7,0,0,1,9.4-4.3c12.3-3.1,23.5-8.5,31.2-18.6,5-6.4,10.5-9.2,18.1-9,4.1,0,6.7-2.1,9.2-5.2C682.9,283.7,680.3,273.7,678.4,263.7ZM592,209.2c0-11.8-5.2-18.3-16-22s-19.4-6.1-29-9.1c-14.6-4.6-27.4,4.7-27.9,20a81.5,81.5,0,0,0,2.2,19.7c2.1,10.5,4.8,20.8,10.5,30s10.2,10.4,19.6,6.1a80.7,80.7,0,0,0,35.4-30.5C590,218.4,591.9,212.9,592,209.2Zm-63.2-46.7a67.4,67.4,0,0,0-1.8-17.4c-2.8-12.7-11.6-18.7-24.6-16.2s-23.2,5.9-34.4,10-17.2,17.1-11.4,27.9c10.6,19.7,26.3,34.2,48.1,41,6.2,1.9,6.3,1.6,6.1-5-.3-11.1,2.4-21.2,11.7-27.8C527.7,171.4,530.2,167.6,528.8,162.5Zm1.7,125.7c18.9-.3,33.6-6.2,47.5-14.4,4.2-2.4,3.8-4.7,1-7.8-6.8-7.5-15.4-9.5-24.8-5.5-14.5,6.2-23.1,3.4-31-10.2a37.5,37.5,0,0,1-2.5-4.9,104.7,104.7,0,0,1-7.9-25.1c-.8-5-4.9-3.5-7.8-4.4-1.3-.4-2.6-.7-2.9,1.4-.5,4.3-3.3,7.6-5.3,11.2-5.9,11-12.9,21.4-17.1,33.3a41.3,41.3,0,0,0-2.6,18.1c.4,3.1,1.8,4.9,5.1,5.1C499.1,286,516.1,285.1,530.5,288.2Zm66.7-94.9c.3,7.5,4.8,10,11.4,10.2l6.4.5c15.5,1,22.6-6.1,21.7-21.6-.5-8.5-1.2-17-1.8-25.4-.8-11.3-10.5-19.1-21.5-16.3-18.1,4.5-32.8,14.2-43,30.1-3.3,5.3-3.1,5.5,2.7,7.2s12.9,3.7,17.8,8.5c2.1,2.1,3.6,4.6,7.1,1.7,1.2-1,3.6-.7,5.2.6a2,2,0,0,1,.5,2.7c-1.2,1.7-3,1.9-4.9,1.8ZM353.1,308a27.1,27.1,0,0,0,11.7-2.2,26,26,0,0,1,8.6-2.2c12.4-1.2,25.2-.2,37.2-4s26.9-3.9,40.4-4.7a65.7,65.7,0,0,0,17.1-3.4c3-1.1,4.5-2.5,2.5-5.9a12,12,0,0,1-1.6-7.2c.3-4.3-1.9-4.5-5.2-4-30.9,4.9-61.9,9.3-92.6,14.7-11.6,2-21-.3-29.6-7.8-6.9-6-7-5.9-9.8,3.3a24.6,24.6,0,0,0-.7,2.9c-1.8,11.4,2.7,17.7,14.1,19.5Zm50-173.8c.8,2.2-1.5,7.4,3.7,6.9,11.3-.9,18.7,4.5,23.3,13.8,2.9,5.6,7.1,6.7,12.5,7,3.2.2,4.6-.3,4.7-4.1.3-11.8,5.4-20.8,16.6-25.6,2.5-1.1,3.5-2.3,2.5-4.9-2.5-6.9-4.9-13.9-8.9-20.1-7.2-11.3-18.1-12.9-28.3-4.2-7,5.9-13.7,12.1-20.5,18.3C405.2,124.6,402.6,128.4,403.1,134.2ZM511.2,113a13.3,13.3,0,0,0,0,2c.3,2-1.1,4.6,1.9,5.6s4.5,1,5.6-2a1.9,1.9,0,0,1,2.6-.9A3,3,0,0,1,523,121c-.2,1.6-.9,3.2.9,4.5,9.4,6.9,11.4,17.2,12.2,27.8.4,4.9,2.1,4.9,5.5,3a62.3,62.3,0,0,0,28.7-34.5c3.6-10.2-1.1-18.6-11.5-21.6-7.6-2.3-15.4-4.1-23.1-6C520.2,90.3,511.2,97.3,511.2,113ZM641.5,237.5c-.3-1.5-1.4-2.1-2.3-2.8-11.9-8.8-25.5-12.6-40-13.5-1.7-.1-2.9.3-3.7,1.9-5.1,10.4-13.1,18.3-22,25.4-2.7,2.1-2.2,3,.6,4.3,6,2.7,11.3,6.4,14.1,12.7,1.3,2.9,3.1,1.7,4.9,1.1A151.7,151.7,0,0,0,621.3,254c6.4-3.9,12.7-8.1,17.8-13.6A30.7,30.7,0,0,0,641.5,237.5ZM429.9,185.9c0-12.6-2.7-23-7.4-29.5-6.4-8.6-13.8-9.7-22.2-3-5.4,4.4-10.7,9-16.1,13.5-9.5,8-9.2,17.7,1.1,24.6a61.3,61.3,0,0,0,27.3,10.2C427.8,203.6,430.1,201.3,429.9,185.9Zm-96.1-13.5c8.6-3.7,17.3-8.7,26.5-8,13.6,1.1,22.4-5.7,31-14.2a19,19,0,0,1,3.9-3.1c3.2-1.9,2.6-3.5-.3-4.8a63,63,0,0,1-15.2-9.6c-3.3-2.8-6.7-3.2-10.6-2.3-19.1,4.5-29.4,17.7-34.9,35.5C333.5,167.8,332.5,169.9,333.8,172.4ZM487.6,97.2c-6.8-.8-13.5.8-20.1,2.3-3.4.8-5.1,1.7-2.7,5.6a76.1,76.1,0,0,1,8.8,20c.9,3.1,2.4,3.4,5.1,2.5,6.8-2.2,13.6-4.5,20.5-6.2,3.2-.8,3.8-2.4,3.7-5.2-.1-5-.3-10,1.7-14.8,1-2.5-.1-3.1-2.5-3.3C497.3,97.8,492.5,96.8,487.6,97.2Zm-74.2,9-.7-1.2A41.7,41.7,0,0,0,390,116.1c-10.2,9.8-9,7.6,2.3,15.3,1.8,1.3,2.5.7,2.8-1.4,1.3-7.3,5.7-12.5,11.1-17.2C408.6,110.7,411,108.4,413.4,106.2Z" transform="translate(-66.7 -84.7)"/><path class="cls-1" d="M556,217.9c-.9,2.6-1.4,5.7-4.7,5.7s-2.5-2.4-2.3-4.2,1.2-5.5,4.5-5.5S555.9,216.2,556,217.9Z" transform="translate(-66.7 -84.7)"/><path class="cls-1" d="M542.2,233.5c-.6,2.3-1.1,5.3-4.3,5.6s-2.9-1.9-2.7-3.8,1.1-5.4,4.2-5.8S542.1,231.4,542.2,233.5Z" transform="translate(-66.7 -84.7)"/><path class="cls-1" d="M551.7,240.6c.7-2.6,1.1-5.5,4.4-5.9s2.9,1.9,2.7,3.8-1.1,5.5-4.3,5.9S552,242.4,551.7,240.6Z" transform="translate(-66.7 -84.7)"/><path class="cls-1" d="M574.4,224.4c-.3,2.6-.8,5.6-4.3,6s-2.6-1.7-2.5-3.4.9-5.8,4.3-6.3S574.3,222.4,574.4,224.4Z" transform="translate(-66.7 -84.7)"/><path class="cls-1" d="M580.1,204.4c-.9,2.4-1.3,5.5-4.7,5.4s-2.6-2.3-2.3-4.1,1.3-5.5,4.6-5.5S580.1,202.5,580.1,204.4Z" transform="translate(-66.7 -84.7)"/><path class="cls-1" d="M541.4,190.9c-.3,2.8-.9,5.6-4.1,5.9s-2.6-2-2.5-3.8.9-5.5,4.1-5.9S541.3,189.1,541.4,190.9Z" transform="translate(-66.7 -84.7)"/><path class="cls-1" d="M536.4,211.9c-.6,2.5-1.1,5.5-4.5,5.6s-2.6-2.2-2.4-4,1.1-5.2,4.1-5.6S536.3,209.8,536.4,211.9Z" transform="translate(-66.7 -84.7)"/><path class="cls-1" d="M561.3,197.1c-.3,2.7-.9,5.5-4.2,5.8s-2.5-1.9-2.4-3.5.8-5.7,3.9-6.2S561.2,195.2,561.3,197.1Z" transform="translate(-66.7 -84.7)"/><path class="cls-1" d="M499.1,191.3c-.1,2.1-.3,4.3-2.7,4.1s-3.8-3.3-4-5.9.1-4.1,2.6-3.9S498.8,188.8,499.1,191.3Z" transform="translate(-66.7 -84.7)"/><path class="cls-1" d="M494.3,150.2c-.2,2.1-.3,4.4-2.6,4.3s-4-3.1-4.3-5.8.2-4.1,2.5-4S493.6,147.9,494.3,150.2Z" transform="translate(-66.7 -84.7)"/><path class="cls-1" d="M521,166.4c-.2,2-.6,4.1-3,3.6s-3.7-3.5-3.9-6.1.6-4.1,3-3.6S520.7,163.8,521,166.4Z" transform="translate(-66.7 -84.7)"/><path class="cls-1" d="M474.8,156.7c-.2,2-.6,4.2-3,3.8s-3.8-3.4-3.9-6.1.5-4.1,2.9-3.7S474.3,154.2,474.8,156.7Z" transform="translate(-66.7 -84.7)"/><path class="cls-1" d="M481.9,176.8c-.2,1.8-.3,4.2-2.6,4s-4-3.1-4.2-5.8.2-4.1,2.5-4S481.3,174.3,481.9,176.8Z" transform="translate(-66.7 -84.7)"/><path class="cls-1" d="M506.8,144.4c.1-2.3.1-4.6,2.6-4.4s3.8,3,3.9,5.6.2,4.2-2.3,4.1S507.3,146.6,506.8,144.4Z" transform="translate(-66.7 -84.7)"/><path class="cls-1" d="M501.2,171c-.2,1.9-.3,4.3-2.8,3.8s-3.7-3.5-3.7-6.3.4-3.8,2.5-3.5S501,168.3,501.2,171Z" transform="translate(-66.7 -84.7)"/><path class="cls-1" d="M618.3,152c1.9.1,4.1.4,4.1,2.6s-2.3,3-4.3,3.1-4-.5-3.9-2.9S616.4,152.2,618.3,152Z" transform="translate(-66.7 -84.7)"/><path class="cls-1" d="M619.6,176.1c-2.1-.2-4.2-.3-4.4-2.7s2-2.9,3.9-3,4.4.2,4.4,2.8S621.3,175.8,619.6,176.1Z" transform="translate(-66.7 -84.7)"/><path class="cls-1" d="M599.5,159.8c-2-.3-4.2-.4-4.2-2.8s2.1-2.9,3.9-2.9,4.5.2,4.3,2.9S601.2,159.4,599.5,159.8Z" transform="translate(-66.7 -84.7)"/><path class="cls-1" d="M600.6,178c-1.9-.2-4.1-.4-4.1-2.7s2.3-3,4.3-3,4,.5,3.9,2.9S602.4,177.7,600.6,178Z" transform="translate(-66.7 -84.7)"/><path class="cls-1" d="M583.2,171.7c-1.9-.3-4.1-.6-3.9-3S582,166,584,166s3.7.7,3.6,2.7S585.2,171.5,583.2,171.7Z" transform="translate(-66.7 -84.7)"/><path class="cls-1" d="M619.2,193.2c-2-.1-4.2-.5-4.1-2.7s2.5-2.7,4.5-2.7,3.6.2,3.7,2.4S621.1,193,619.2,193.2Z" transform="translate(-66.7 -84.7)"/><path class="cls-1" d="M420.9,136.2c0,1.7-.9,2.7-2.4,2.6s-4.5-2.2-5.1-4.9.5-2.8,2.1-2.7S420.1,133.4,420.9,136.2Z" transform="translate(-66.7 -84.7)"/><path class="cls-1" d="M444.8,139.6a5.8,5.8,0,0,1-4.8-5,2,2,0,0,1,2.3-2.5,5.4,5.4,0,0,1,5.1,5.2C447.5,138.9,446.4,139.7,444.8,139.6Z" transform="translate(-66.7 -84.7)"/><path class="cls-1" d="M460.9,126.1c.1,1.6-.7,2.8-2.3,2.6a5.8,5.8,0,0,1-5.2-4.6c-.4-1.6.4-2.9,1.9-2.9C458.4,121.3,460,123.3,460.9,126.1Z" transform="translate(-66.7 -84.7)"/><path class="cls-1" d="M434.2,124c-.2,1.9-1,2.9-2.6,2.6a5.4,5.4,0,0,1-4.8-4.9c-.2-1.5.6-2.7,2.2-2.5S433.5,121.5,434.2,124Z" transform="translate(-66.7 -84.7)"/><path class="cls-1" d="M444.8,115.4a5.6,5.6,0,0,1-4.8-5.3,1.9,1.9,0,0,1,2.6-2.1,5.5,5.5,0,0,1,4.8,5C447.6,114.6,446.7,115.4,444.8,115.4Z" transform="translate(-66.7 -84.7)"/><path class="cls-1" d="M434.1,148.8c-.1,1.8-1,2.6-2.6,2.3a5.2,5.2,0,0,1-4.7-4.9c-.2-1.8,1-2.7,2.8-2.3A5.5,5.5,0,0,1,434.1,148.8Z" transform="translate(-66.7 -84.7)"/><path class="cls-1" d="M556.2,131.3c-.4,1.9-.8,4-3.4,3.9s-2.1-2-1.9-3.5.8-4.2,3.3-4.1S556.2,129.6,556.2,131.3Z" transform="translate(-66.7 -84.7)"/><path class="cls-1" d="M541.3,147.4c-1.8,0-2.4-1.1-2.5-2.5s.2-4.6,2.9-5.1,2.3,1,2.4,2.4S543.8,146.5,541.3,147.4Z" transform="translate(-66.7 -84.7)"/><path class="cls-1" d="M554.7,114.1c.2-2,.9-3.8,3-4s2.4,1.9,2.3,3.6-1.1,4.1-3.6,4S554.7,115.6,554.7,114.1Z" transform="translate(-66.7 -84.7)"/><path class="cls-1" d="M527.4,104.2c-.2,2.4-.9,4.2-3.1,4.3s-2.6-1.8-2.3-3.5.9-3.8,3.1-4S527.1,103.1,527.4,104.2Z" transform="translate(-66.7 -84.7)"/><path class="cls-1" d="M540.3,126.2c-.3,1.9-.7,3.9-3,3.9s-2.5-1.8-2.3-3.5.8-3.9,3-4S540.2,124.6,540.3,126.2Z" transform="translate(-66.7 -84.7)"/><path class="cls-1" d="M541,112.8c-1.9-.3-2.4-1.6-2.3-3.2s.8-4.1,3.1-4.4,2.3,1.5,2.3,3S543.3,112.1,541,112.8Z" transform="translate(-66.7 -84.7)"/><path class="cls-1" d="M411.6,190.8a5.4,5.4,0,0,1,3.9,4.6c.1,1.3-.6,2.4-2,2.1a4.7,4.7,0,0,1-4-4.5A1.8,1.8,0,0,1,411.6,190.8Z" transform="translate(-66.7 -84.7)"/><path class="cls-1" d="M398.5,171.8c-2.3-.4-3.6-2-4.1-4.3s.3-2.5,1.8-2.3a4.9,4.9,0,0,1,4.2,4.2A1.9,1.9,0,0,1,398.5,171.8Z" transform="translate(-66.7 -84.7)"/><path class="cls-1" d="M422.9,189.4a4.7,4.7,0,0,1-4-4.2c-.2-1.2,0-2.6,1.6-2.5s3.7,2,4.2,4.2S424.6,189.2,422.9,189.4Z" transform="translate(-66.7 -84.7)"/><path class="cls-1" d="M410.9,180.6c0,1.5-.5,2.6-2,2.3a4.9,4.9,0,0,1-4-4.5c-.1-1.3.5-2.4,2-2.1A5,5,0,0,1,410.9,180.6Z" transform="translate(-66.7 -84.7)"/><path class="cls-1" d="M384.9,174.9a5.3,5.3,0,0,1,4,4.5c.2,1.3-.4,2.4-1.9,2.2a4.7,4.7,0,0,1-4.1-4.4A1.9,1.9,0,0,1,384.9,174.9Z" transform="translate(-66.7 -84.7)"/><path class="cls-1" d="M397.9,192.5a5,5,0,0,1-4.2-4.2c-.3-1.3.2-2.4,1.8-2.3s3.6,2,4.1,4.2S399.3,192.4,397.9,192.5Z" transform="translate(-66.7 -84.7)"/><path class="cls-1" d="M411.8,160.5c.1,1.4-.4,2.5-1.8,2.3s-3.7-2-4.2-4.3.4-2.4,1.8-2.2S411.1,158.4,411.8,160.5Z" transform="translate(-66.7 -84.7)"/><path class="cls-1" d="M418.5,167.7a4.9,4.9,0,0,1,4.1,4.2c.3,1.3-.3,2.3-1.8,2.2s-3.7-1.8-4.1-4.1S416.9,167.8,418.5,167.7Z" transform="translate(-66.7 -84.7)"/><path class="cls-1" d="M143.3,501.6c8.1,7.4,12.1,16.8,12.1,28.2s-4,20.8-12.1,28.3a40,40,0,0,1-12.6,7.8,41.8,41.8,0,0,1-14.3,2.5H84.8v38.9H66.7V491.1h49.7a38.6,38.6,0,0,1,14.3,2.7A35.3,35.3,0,0,1,143.3,501.6Zm-26.9,48.7a21.3,21.3,0,0,0,14.5-5.6c4.3-3.6,6.4-8.6,6.4-14.9s-2.1-11.3-6.4-15a21.2,21.2,0,0,0-14.5-5.5H84.8v41Z" transform="translate(-66.7 -84.7)"/><path class="cls-1" d="M172.1,607.3H153.3l33.4-116h27.4l33.6,116H228.6l-9.8-34.1-39.6,9.2Zm28.4-98.2L185,562.4l28.7-6.9Z" transform="translate(-66.7 -84.7)"/><path class="cls-1" d="M309.7,608.9a150.5,150.5,0,0,1-26.1-2.5c-9.6-1.7-16.5-3.4-20.9-5.1l6.4-17.1c4.5,1.7,12.1,3.4,22.9,5.1s19.3,2,25.2.9A9.7,9.7,0,0,0,323,587a12.4,12.4,0,0,0,3.1-6.4c.7-6.5-3.5-12-12.7-16.3-4.6-2.2-12.6-5.7-23.8-10.4l-4.4-1.8-4.2-1.8a20,20,0,0,1-2.8-1.3,36.5,36.5,0,0,1-15.7-12.7,29.6,29.6,0,0,1-5-17.4,28.5,28.5,0,0,1,5.4-16,29.8,29.8,0,0,1,14.2-10.7c7.5-3,18.6-3.2,33.4-.6a169.9,169.9,0,0,1,24.8,6.8l-6.3,17a139.3,139.3,0,0,0-22-5.8c-10.8-2-18.6-2.2-23.4-.5s-7.7,5.4-8,10.3,3.1,9.9,10,13.1l11.3,4.7,11.8,5.1c6.1,2.7,10.3,4.5,12.5,5.6,8.3,4,14.5,9.2,18.5,15.5a28.7,28.7,0,0,1,4.4,19.7,29.1,29.1,0,0,1-7.9,16.4,28.7,28.7,0,0,1-15.7,8.5A67.4,67.4,0,0,1,309.7,608.9Z" transform="translate(-66.7 -84.7)"/><path class="cls-1" d="M432.1,491.1v18.2H403.8v98H385.6v-98H357.5V491.1Z" transform="translate(-66.7 -84.7)"/><path class="cls-1" d="M469.3,589h49.2v18.1H451.2v-116h63.1v18.2h-45v26.8h41.8v18.2H469.3Z" transform="translate(-66.7 -84.7)"/><path class="cls-1" d="M556.6,589.1h49.2v18.2H538.5v-116h18.1Z" transform="translate(-66.7 -84.7)"/><path class="cls-1" d="M644.9,590.9a10.5,10.5,0,0,1,3.4,7.9A11.4,11.4,0,0,1,637,610a10.9,10.9,0,0,1-8-3.3,11,11,0,0,1,0-15.9,10.9,10.9,0,0,1,8-3.3A10.5,10.5,0,0,1,644.9,590.9Z" transform="translate(-66.7 -84.7)"/><path class="cls-1" d="M741.6,491.1h18.2V607.3H739.4l-49.7-84.1v84.1H671.5V491.1h20.4l49.7,84.2Z" transform="translate(-66.7 -84.7)"/><path class="cls-1" d="M803,589h49.2v18.1H784.8v-116H848v18.2H803v26.8h41.7v18.2H803Z" transform="translate(-66.7 -84.7)"/><path class="cls-1" d="M940,491.1v18.2H911.7v98H893.5v-98H865.4V491.1Z" transform="translate(-66.7 -84.7)"/><path class="cls-1" d="M259.1,644.3h1.7v10.2h6.3v1.4h-8Z" transform="translate(-66.7 -84.7)"/><path class="cls-1" d="M279.5,653h-6.2l-1.3,2.9h-1.7l5.3-11.6h1.6l5.3,11.6h-1.7Zm-.6-1.3-2.5-5.7-2.5,5.7Z" transform="translate(-66.7 -84.7)"/><path class="cls-1" d="M304.2,648.3c0,2.6-1.9,4.1-4.9,4.1h-2.9v3.5h-1.6V644.3h4.5C302.3,644.3,304.2,645.8,304.2,648.3Zm-1.7,0c0-1.6-1.1-2.6-3.2-2.6h-2.9v5.2h2.9C301.4,650.9,302.5,650,302.5,648.3Z" transform="translate(-66.7 -84.7)"/><path class="cls-1" d="M316.5,653h-6.2l-1.3,2.9h-1.7l5.3-11.6h1.6l5.3,11.6h-1.7Zm-.6-1.3-2.5-5.7-2.5,5.7Z" transform="translate(-66.7 -84.7)"/><path class="cls-1" d="M323.2,654.6l.6-1.3a6.1,6.1,0,0,0,3.9,1.3c2,0,2.8-.7,2.8-1.8,0-2.8-7-1-7-5.3,0-1.8,1.4-3.4,4.4-3.4a6.8,6.8,0,0,1,3.8,1.1l-.6,1.3a5.5,5.5,0,0,0-3.2-1c-1.9,0-2.8.9-2.8,1.9,0,2.8,7.1,1.1,7.1,5.3,0,1.8-1.5,3.4-4.5,3.4A6.8,6.8,0,0,1,323.2,654.6Z" transform="translate(-66.7 -84.7)"/><path class="cls-1" d="M339.8,645.7h-4v-1.4h9.6v1.4h-4v10.2h-1.6Z" transform="translate(-66.7 -84.7)"/><path class="cls-1" d="M358.7,654.5v1.4h-8.5V644.3h8.3v1.4h-6.6v3.6h5.9v1.4h-5.9v3.8Z" transform="translate(-66.7 -84.7)"/><path class="cls-1" d="M364.4,644.3h1.7v10.2h6.3v1.4h-8Z" transform="translate(-66.7 -84.7)"/><path class="cls-1" d="M385.8,654.5v1.4h-8.5V644.3h8.2v1.4H379v3.6h5.8v1.4H379v3.8Z" transform="translate(-66.7 -84.7)"/><path class="cls-1" d="M399.3,655.9l-2.5-3.6h-3.6v3.5h-1.7V644.3H396c3.1,0,4.9,1.5,4.9,4a3.7,3.7,0,0,1-2.6,3.7l2.8,3.9Zm-.1-7.6c0-1.6-1.1-2.6-3.2-2.6h-2.8V651H396C398.1,651,399.2,650,399.2,648.3Z" transform="translate(-66.7 -84.7)"/><path class="cls-1" d="M408.5,641.1h2l-2.8,2.2h-1.5Zm-1.9,3.2h1.7v11.6h-1.7Z" transform="translate(-66.7 -84.7)"/><path class="cls-1" d="M422.2,653H416l-1.3,2.9H413l5.3-11.6h1.6l5.4,11.6h-1.8Zm-.6-1.3-2.5-5.7-2.5,5.7Z" transform="translate(-66.7 -84.7)"/><path class="cls-1" d="M448.3,655.9v-8.5l-4.2,7.1h-.8l-4.2-7v8.4h-1.6V644.3h1.3l4.9,8.2,4.8-8.2h1.4v11.6Z" transform="translate(-66.7 -84.7)"/><path class="cls-1" d="M463.8,653h-6.2l-1.3,2.9h-1.7l5.3-11.6h1.7l5.3,11.6h-1.8Zm-.5-1.3-2.6-5.7-2.5,5.7Zm-2.3-8.4h-1.5l2.3-2.2h2Z" transform="translate(-66.7 -84.7)"/><path class="cls-1" d="M470.5,654.6l.7-1.3a5.6,5.6,0,0,0,3.8,1.3c2,0,2.9-.7,2.9-1.8,0-2.8-7.1-1-7.1-5.3,0-1.8,1.4-3.4,4.5-3.4a6.2,6.2,0,0,1,3.7,1.1l-.5,1.3a5.7,5.7,0,0,0-3.2-1c-2,0-2.8.9-2.8,1.9,0,2.8,7,1.1,7,5.3,0,1.8-1.4,3.4-4.5,3.4A6.9,6.9,0,0,1,470.5,654.6Z" transform="translate(-66.7 -84.7)"/><path class="cls-1" d="M491.5,650.1a5.9,5.9,0,0,1,6.2-6,5.6,5.6,0,0,1,4.4,1.8L501,647a4.1,4.1,0,0,0-3.2-1.4,4.5,4.5,0,1,0,0,9,4.5,4.5,0,0,0,3.2-1.4l1.1,1a5.7,5.7,0,0,1-4.4,1.9A5.9,5.9,0,0,1,491.5,650.1Z" transform="translate(-66.7 -84.7)"/><path class="cls-1" d="M506.3,650.1a6.2,6.2,0,1,1,6.2,6A5.9,5.9,0,0,1,506.3,650.1Zm10.7,0a4.5,4.5,0,1,0-4.5,4.5A4.4,4.4,0,0,0,517,650.1Z" transform="translate(-66.7 -84.7)"/><path class="cls-1" d="M535.1,655.9v-8.5l-4.2,7.1h-.8l-4.2-7v8.4h-1.6V644.3h1.3l4.9,8.2,4.8-8.2h1.4v11.6Z" transform="translate(-66.7 -84.7)"/><path class="cls-1" d="M552.6,648.3c0,2.6-1.8,4.1-4.9,4.1h-2.8v3.5h-1.7V644.3h4.5C550.8,644.3,552.6,645.8,552.6,648.3Zm-1.7,0c0-1.6-1.1-2.6-3.2-2.6h-2.8v5.2h2.8C549.8,650.9,550.9,650,550.9,648.3Z" transform="translate(-66.7 -84.7)"/><path class="cls-1" d="M558.1,644.3h1.6v10.2h6.4v1.4h-8Z" transform="translate(-66.7 -84.7)"/><path class="cls-1" d="M579.4,654.5v1.4H571V644.3h8.2v1.4h-6.6v3.6h5.9v1.4h-5.9v3.8Z" transform="translate(-66.7 -84.7)"/><path class="cls-1" d="M587.5,645.7h-4v-1.4h9.6v1.4h-4v10.2h-1.6Z" transform="translate(-66.7 -84.7)"/><path class="cls-1" d="M604.8,653h-6.2l-1.3,2.9h-1.7l5.3-11.6h1.6l5.3,11.6h-1.7Zm-.6-1.3-2.5-5.7-2.5,5.7Z" transform="translate(-66.7 -84.7)"/><path class="cls-1" d="M620,644.3h5c3.7,0,6.3,2.3,6.3,5.8s-2.6,5.8-6.3,5.8h-5Zm4.9,10.2c2.8,0,4.7-1.8,4.7-4.4s-1.9-4.4-4.7-4.4h-3.2v8.8Z" transform="translate(-66.7 -84.7)"/><path class="cls-1" d="M645.3,654.5v1.4h-8.5V644.3h8.3v1.4h-6.6v3.6h5.8v1.4h-5.8v3.8Z" transform="translate(-66.7 -84.7)"/><path class="cls-1" d="M658.5,644.3h1.6v10.2h6.4v1.4h-8Z" transform="translate(-66.7 -84.7)"/><path class="cls-1" d="M678.9,653h-6.2l-1.3,2.9h-1.7l5.3-11.6h1.6l5.3,11.6h-1.7Zm-.6-1.3-2.5-5.7-2.5,5.7Z" transform="translate(-66.7 -84.7)"/><path class="cls-1" d="M710.6,644.3l-3.9,11.6H705l-3.2-9.3-3.2,9.3h-1.8l-3.9-11.6h1.7l3.2,9.4,3.3-9.4h1.5l3.2,9.5,3.2-9.5Z" transform="translate(-66.7 -84.7)"/><path class="cls-1" d="M724.1,654.5v1.4h-8.4V644.3h8.2v1.4h-6.6v3.6h5.9v1.4h-5.9v3.8Z" transform="translate(-66.7 -84.7)"/><path class="cls-1" d="M739.9,652.8c0,2-1.5,3.1-4.5,3.1h-5.6V644.3h5.3c2.7,0,4.2,1.1,4.2,3a3,3,0,0,1-1.6,2.6A2.8,2.8,0,0,1,739.9,652.8Zm-8.4-7.2v3.7h3.4c1.7,0,2.7-.6,2.7-1.8s-1-1.9-2.7-1.9Zm6.7,7c0-1.3-1-1.9-2.9-1.9h-3.8v3.9h3.8C737.2,654.6,738.2,654,738.2,652.6Z" transform="translate(-66.7 -84.7)"/></svg>