<svg id="Capa_1" data-name="Capa 1" xmlns="http://www.w3.org/2000/svg" viewBox="0 0 211 49.7"><defs><style>.cls-1{fill:#fff;}</style></defs><path class="cls-1" d="M29.8,55.8c.1-1.8-.1-3.3.1-4.8s-.2-.5-.6-.4L23,51.8a69.7,69.7,0,0,1-7.8,1.1,7.7,7.7,0,0,1-3.7-.4A3.8,3.8,0,0,1,9,48.8V47.7a2.8,2.8,0,0,0-.7-2.3,3.1,3.1,0,0,1-.7-2.6c.1-.4.1-.9.4-1.2s1-3.5,1.1-5.2a1.5,1.5,0,0,0-.5-1.2c-2.4-2-3.7-5.3-1.2-8.4a1.7,1.7,0,0,0,.5-1.3A8.3,8.3,0,0,1,15,17.7a1,1,0,0,0,.8-.4,8.4,8.4,0,0,1,6.4-3.5,2.8,2.8,0,0,0,1.3-.4,3.8,3.8,0,0,1,4-.2,1,1,0,0,0,.9.1,14.2,14.2,0,0,1,7.1-.4,1.2,1.2,0,0,0,1-.2,2.5,2.5,0,0,1,2.3-.7,20.3,20.3,0,0,1,5.5,1.5l3.1,1.3.9.2c3.9-.2,6.6,1.7,8.8,4.7a3.6,3.6,0,0,0,1.1,1,7.4,7.4,0,0,1,3.9,5,19.5,19.5,0,0,0,.6,2.3,6.1,6.1,0,0,1-.2,3,3.2,3.2,0,0,0-.3,1.7v4.7c0,.8.4,1.6.5,2.5a5.1,5.1,0,0,1-1.2,4.7,1.4,1.4,0,0,0-.2.6c-.6,6.1-4.1,10.1-9.5,12.7a34.1,34.1,0,0,1-11.3,3.2,51.1,51.1,0,0,1-7.8.5h-.9a2.1,2.1,0,0,1-2.1-2.3c0-.6.1-1.2.1-1.9Zm1.1.6h0v2.4c0,1.3.2,1.5,1.5,1.5a47.7,47.7,0,0,0,7.6-.5,32.8,32.8,0,0,0,11-3,15.9,15.9,0,0,0,6.8-5.5,13.1,13.1,0,0,0,2.1-5.5c0-.2.2-.5-.2-.5s-1.2-.1-1.7.5a10.4,10.4,0,0,1-5.7,3.7,3.2,3.2,0,0,0-.9.3,16.7,16.7,0,0,1-7.1,2.7c-1.7.3-3.3.2-5,.6a18,18,0,0,1-8,.2c-.3-.1-.4,0-.4.3Zm.4-10.3h.1v2.2c-.1.6.2.7.7.7h3.2a50.9,50.9,0,0,0,14.8-3.6,27.5,27.5,0,0,0,10.4-7.4,1.4,1.4,0,0,0,.5-1.1V33.5a.7.7,0,0,0-.1-.5c-.2-.1-.4.1-.5.2a25.4,25.4,0,0,0-5,3.8,18.6,18.6,0,0,1-7.1,3.7l-.9.4c-3.2,2.1-6.6,3.3-10.6,2.5-1.7-.4-3.4-.1-5.2-.2s-.3.2-.3.4ZM10.2,37.5c0,1.2-.2,2.4,1,3.3a4.1,4.1,0,0,0,3.7.8l14.4-2.2a.9.9,0,0,0,.8-.8A12.3,12.3,0,0,1,31.3,36a39.7,39.7,0,0,1,2-3.5c.2-.5.1-.6-.4-.7a11.7,11.7,0,0,0-2.7.5c-3.6.8-7.2,1-10.7,1.8s-5.3.6-8,1-1.2.1-1.3,1.5Zm22.1-6.8-.3-.2a12.6,12.6,0,0,1-4.5-4.4,2.1,2.1,0,0,0-2.2-1.3h-.1c-.4-.1-.5,0-.4.4a9.7,9.7,0,0,1,.2,2.9c-.1,1.9-1,2.8-2.8,2.8a11.6,11.6,0,0,1-6-2,3.3,3.3,0,0,1-1.4-3.3c.1-.6-.2-.6-.7-.6a12.4,12.4,0,0,0-4.5,1.4,4.5,4.5,0,0,0-2.3,3.2c-.3,2,.8,3.4,2,4.7a.5.5,0,0,0,.6.1c3.6-.6,7.4-.8,11-1.6S28.5,31.6,32.3,30.7Zm13.9-15a4.9,4.9,0,0,1-.6,3.4c-1.3,2.2-2.8,4.1-5.3,5-.2.1-.4.1-.4.4s.2.1.3.1a8.9,8.9,0,0,1,2.8.7c.3.1.5,0,.7-.3,1.4-3,4-4.7,7.1-5.7a3.8,3.8,0,0,1,5.1,3.2,43.6,43.6,0,0,1,.3,5.1A3.5,3.5,0,0,1,53.6,31,8.7,8.7,0,0,1,50,31c-.2,0-.6-.3-.6.1s.3.3.5.3A12,12,0,0,1,56.4,34a.6.6,0,0,0,.6.1c1-.8,2.2-1.3,3.2-2.1a3.4,3.4,0,0,0,1.3-3.2,15.7,15.7,0,0,0-1.3-4.7,3,3,0,0,0-.9-1.3,20.6,20.6,0,0,1-4.9-4.4L54,18a7.7,7.7,0,0,0-4-1.8C48.7,16.1,47.4,16.4,46.2,15.7Zm-16,30.9V44.9c-.1-.4-.1-.6-.6-.5a18.5,18.5,0,0,1-5.2.6,5.3,5.3,0,0,0-2.2.3,23.4,23.4,0,0,1-4.5.7,11,11,0,0,0-3.1.4,8.6,8.6,0,0,1-2.8.4c-.5,0-1.2-.5-1.5,0s-.1,1.1-.1,1.6a2.7,2.7,0,0,0,2.3,3l1.2.2,3.7-.3c3.7-.5,7.3-1.1,11-1.9,1.9-.4,1.9-.3,1.8-2.2ZM61.3,39a.6.6,0,0,0-.5.3,26,26,0,0,1-9,6.4,50,50,0,0,1-19.7,4.4c-.8,0-1,.2-1,.9s.1,1.1,1,1.3a13,13,0,0,0,4.4.1c2.3-.4,4.5-.7,6.8-.9A14.9,14.9,0,0,0,50.6,49a3.9,3.9,0,0,1,1.5-.6,8.8,8.8,0,0,0,4.7-2.8,3.1,3.1,0,0,1,2.7-1.4,1.7,1.7,0,0,0,1.4-.8C62,42,61.6,40.5,61.3,39Zm-13-8.3a3.2,3.2,0,0,0-2.5-3.3l-4.3-1.3a3.2,3.2,0,0,0-4.3,3,15.4,15.4,0,0,0,.4,3,12.8,12.8,0,0,0,1.6,4.5c.8,1.3,1.5,1.6,2.9.9a12.1,12.1,0,0,0,5.4-4.6A4.6,4.6,0,0,0,48.3,30.7Zm-9.6-7a10.3,10.3,0,0,0-.3-2.6,2.8,2.8,0,0,0-3.7-2.5,44.4,44.4,0,0,0-5.2,1.5,3,3,0,0,0-1.7,4.2,12.1,12.1,0,0,0,7.3,6.2c.9.3.9.3.9-.7a4.5,4.5,0,0,1,1.8-4.2C38.5,25,38.9,24.5,38.7,23.7Zm.3,19a13.8,13.8,0,0,0,7.1-2.2c.7-.4.6-.7.2-1.2a3.1,3.1,0,0,0-3.7-.8c-2.2.9-3.5.5-4.7-1.5l-.4-.8a12.9,12.9,0,0,1-1.2-3.8c-.1-.7-.7-.5-1.2-.6s-.4-.1-.4.2a6.5,6.5,0,0,1-.8,1.7,29.6,29.6,0,0,0-2.6,5,6.3,6.3,0,0,0-.4,2.7c.1.5.3.8.8.8C34.2,42.4,36.8,42.2,39,42.7ZM49,28.4c.1,1.1.8,1.5,1.8,1.5h.9q3.6.2,3.3-3.3l-.3-3.8a2.6,2.6,0,0,0-3.2-2.5A10.2,10.2,0,0,0,45,25c-.5.7-.5.8.4,1a6.2,6.2,0,0,1,2.7,1.3c.3.3.5.7,1.1.3a.5.5,0,0,1,.7.1c.2.1.2.2.1.4a.8.8,0,0,1-.7.3ZM12.2,45.7a3.3,3.3,0,0,0,1.7-.4l1.3-.3c1.9-.2,3.8,0,5.7-.6a24.8,24.8,0,0,1,6.1-.7,10.1,10.1,0,0,0,2.5-.5c.5-.2.7-.4.4-.9a1.4,1.4,0,0,1-.2-1.1c0-.6-.3-.7-.8-.6l-14,2.2a4.9,4.9,0,0,1-4.5-1.2c-1-.9-1-.8-1.4.5a.9.9,0,0,0-.1.5c-.3,1.7.4,2.7,2.1,2.9Zm7.5-26.3c.1.4-.2,1.1.6,1.1a3.3,3.3,0,0,1,3.5,2,1.8,1.8,0,0,0,1.9,1.1c.5,0,.7,0,.7-.6a3.9,3.9,0,0,1,2.5-3.9c.4-.1.5-.3.4-.7a17.3,17.3,0,0,0-1.4-3.1c-1-1.7-2.7-1.9-4.2-.6l-3.1,2.8A2.3,2.3,0,0,0,19.7,19.4ZM36,16.2a.4.4,0,0,0,.1.3c0,.3-.2.7.2.9s.7.1.9-.3.2-.2.4-.2.2.3.2.5-.1.5.2.7a5.3,5.3,0,0,1,1.8,4.2c.1.7.3.8.8.5A9.7,9.7,0,0,0,45,17.6a2.4,2.4,0,0,0-1.8-3.3,35.8,35.8,0,0,0-3.5-.9C37.4,12.8,36.1,13.8,36,16.2ZM55.7,35c0-.2-.2-.3-.3-.4a11.1,11.1,0,0,0-6.1-2c-.2,0-.4,0-.5.3a13.3,13.3,0,0,1-3.3,3.8c-.4.3-.4.4.1.6a3.7,3.7,0,0,1,2.1,2c.2.4.5.2.7.1a23.5,23.5,0,0,0,4.3-1.9,13.5,13.5,0,0,0,2.7-2ZM23.8,27.2a7.7,7.7,0,0,0-1.1-4.4c-1-1.3-2.1-1.5-3.4-.5l-2.4,2.1c-1.5,1.2-1.4,2.6.1,3.7a10.6,10.6,0,0,0,4.2,1.5C23.5,29.9,23.8,29.6,23.8,27.2Zm-14.5-2a8.4,8.4,0,0,1,4-1.2c2,.2,3.3-.9,4.6-2.2l.6-.4c.5-.3.4-.6,0-.7a9.1,9.1,0,0,1-2.3-1.5,1.6,1.6,0,0,0-1.6-.3c-2.9.6-4.4,2.6-5.3,5.3A1.2,1.2,0,0,0,9.3,25.2ZM32.5,13.8a11.5,11.5,0,0,0-3.1.4c-.5.1-.7.2-.4.8a12.3,12.3,0,0,1,1.4,3.1c.1.4.3.5.7.3l3.1-.9c.5-.1.6-.4.6-.8a5.3,5.3,0,0,1,.3-2.2c.1-.4-.1-.5-.4-.5ZM21.3,15.2V15a6.8,6.8,0,0,0-3.5,1.7c-1.5,1.5-1.3,1.1.4,2.3s.4.1.4-.2a4.6,4.6,0,0,1,1.7-2.6Z" transform="translate(-6.1 -12)"/><path class="cls-1" d="M42.8,32.1c-.1.4-.2.8-.7.8s-.4-.3-.3-.6.2-.8.6-.8S42.8,31.8,42.8,32.1Z" transform="translate(-6.1 -12)"/><path class="cls-1" d="M40.7,34.4c-.1.4-.1.8-.6.9s-.5-.3-.4-.6.1-.8.6-.9S40.7,34.1,40.7,34.4Z" transform="translate(-6.1 -12)"/><path class="cls-1" d="M42.2,35.5c.1-.4.1-.8.6-.9s.5.3.4.6-.1.8-.6.9S42.2,35.8,42.2,35.5Z" transform="translate(-6.1 -12)"/><path class="cls-1" d="M45.6,33c0,.4-.1.9-.6,1s-.4-.3-.4-.6.1-.8.6-.9S45.6,32.8,45.6,33Z" transform="translate(-6.1 -12)"/><path class="cls-1" d="M46.5,30c-.2.4-.2.9-.7.8s-.4-.3-.4-.6.2-.8.7-.8S46.5,29.7,46.5,30Z" transform="translate(-6.1 -12)"/><path class="cls-1" d="M40.6,28c0,.4-.1.8-.6.9s-.4-.3-.4-.6a.9.9,0,0,1,.6-.9C40.6,27.4,40.6,27.7,40.6,28Z" transform="translate(-6.1 -12)"/><path class="cls-1" d="M39.9,31.2c-.1.3-.2.8-.7.8s-.4-.3-.4-.6.2-.8.6-.8S39.8,30.9,39.9,31.2Z" transform="translate(-6.1 -12)"/><path class="cls-1" d="M43.6,28.9c0,.4-.1.9-.6.9s-.4-.3-.4-.5.1-.9.6-1S43.6,28.6,43.6,28.9Z" transform="translate(-6.1 -12)"/><path class="cls-1" d="M34.2,28.1c0,.3,0,.6-.4.6s-.5-.5-.6-.9,0-.6.4-.6S34.2,27.7,34.2,28.1Z" transform="translate(-6.1 -12)"/><path class="cls-1" d="M33.5,21.8c0,.4,0,.7-.4.7s-.6-.5-.6-.9,0-.6.3-.6S33.4,21.5,33.5,21.8Z" transform="translate(-6.1 -12)"/><path class="cls-1" d="M37.5,24.3c0,.3-.1.6-.4.5s-.6-.5-.6-.9.1-.6.4-.5S37.5,23.9,37.5,24.3Z" transform="translate(-6.1 -12)"/><path class="cls-1" d="M30.6,22.8c-.1.3-.1.7-.5.6s-.6-.5-.6-.9.1-.6.5-.6S30.5,22.4,30.6,22.8Z" transform="translate(-6.1 -12)"/><path class="cls-1" d="M31.6,25.9c0,.2,0,.6-.4.6s-.6-.5-.6-.9,0-.6.4-.6S31.5,25.5,31.6,25.9Z" transform="translate(-6.1 -12)"/><path class="cls-1" d="M35.4,21c0-.4,0-.7.4-.7s.6.4.6.8,0,.7-.4.7S35.5,21.3,35.4,21Z" transform="translate(-6.1 -12)"/><path class="cls-1" d="M34.5,25c0,.3,0,.6-.4.6s-.5-.6-.5-1,0-.6.3-.5S34.5,24.6,34.5,25Z" transform="translate(-6.1 -12)"/><path class="cls-1" d="M52.2,22.1a.7.7,0,0,1,.7.4c0,.4-.4.5-.7.5s-.6-.1-.6-.5S51.9,22.2,52.2,22.1Z" transform="translate(-6.1 -12)"/><path class="cls-1" d="M52.4,25.7c-.3,0-.6,0-.6-.3s.3-.5.6-.5.6,0,.6.4S52.7,25.7,52.4,25.7Z" transform="translate(-6.1 -12)"/><path class="cls-1" d="M49.4,23.3c-.3-.1-.6-.1-.6-.4s.3-.5.6-.5.6.1.6.5S49.6,23.2,49.4,23.3Z" transform="translate(-6.1 -12)"/><path class="cls-1" d="M49.6,26c-.3,0-.7,0-.7-.4s.4-.4.7-.4.6,0,.6.4S49.8,26,49.6,26Z" transform="translate(-6.1 -12)"/><path class="cls-1" d="M46.9,25.1c-.3-.1-.6-.1-.6-.5s.4-.4.8-.4.5.1.5.4S47.2,25.1,46.9,25.1Z" transform="translate(-6.1 -12)"/><path class="cls-1" d="M52.4,28.3c-.3,0-.7,0-.6-.4s.3-.4.6-.4.6.1.6.4S52.6,28.3,52.4,28.3Z" transform="translate(-6.1 -12)"/><path class="cls-1" d="M22.4,19.7c0,.3-.1.4-.4.4s-.6-.3-.7-.7.1-.4.3-.4A.8.8,0,0,1,22.4,19.7Z" transform="translate(-6.1 -12)"/><path class="cls-1" d="M26,20.2c-.4,0-.6-.3-.7-.7s.1-.4.4-.4a.8.8,0,0,1,.7.8C26.4,20.1,26.3,20.2,26,20.2Z" transform="translate(-6.1 -12)"/><path class="cls-1" d="M28.4,18.2c.1.2-.1.4-.3.4a1,1,0,0,1-.8-.7c0-.2.1-.4.3-.4A.8.8,0,0,1,28.4,18.2Z" transform="translate(-6.1 -12)"/><path class="cls-1" d="M24.4,17.9c0,.3-.1.4-.4.4a.9.9,0,0,1-.7-.8c0-.2.1-.4.3-.3A.8.8,0,0,1,24.4,17.9Z" transform="translate(-6.1 -12)"/><path class="cls-1" d="M26,16.6a1,1,0,0,1-.7-.8c0-.3.2-.4.4-.3a.7.7,0,0,1,.7.7C26.4,16.5,26.3,16.6,26,16.6Z" transform="translate(-6.1 -12)"/><path class="cls-1" d="M24.4,21.6c0,.3-.1.4-.4.4a.9.9,0,0,1-.7-.8c0-.2.1-.4.4-.3A1,1,0,0,1,24.4,21.6Z" transform="translate(-6.1 -12)"/><path class="cls-1" d="M42.8,19c0,.3-.1.6-.5.6s-.3-.3-.3-.5.2-.7.6-.7S42.8,18.7,42.8,19Z" transform="translate(-6.1 -12)"/><path class="cls-1" d="M40.6,21.4c-.3,0-.4-.1-.4-.4s.1-.7.5-.7.3.1.3.3S41,21.3,40.6,21.4Z" transform="translate(-6.1 -12)"/><path class="cls-1" d="M42.6,16.4c.1-.3.2-.6.5-.6s.3.3.3.5-.1.7-.5.6S42.6,16.6,42.6,16.4Z" transform="translate(-6.1 -12)"/><path class="cls-1" d="M38.5,14.9c0,.3-.1.6-.5.6s-.4-.2-.3-.5.1-.6.5-.6S38.5,14.7,38.5,14.9Z" transform="translate(-6.1 -12)"/><path class="cls-1" d="M40.4,18.2c0,.3-.1.6-.4.6a.3.3,0,0,1-.3-.5c0-.3.1-.6.4-.6S40.4,18,40.4,18.2Z" transform="translate(-6.1 -12)"/><path class="cls-1" d="M40.6,16.2c-.3,0-.4-.3-.4-.5a.6.6,0,0,1,.5-.7c.3,0,.3.3.3.5A.7.7,0,0,1,40.6,16.2Z" transform="translate(-6.1 -12)"/><path class="cls-1" d="M21,28a.7.7,0,0,1,.6.7.3.3,0,0,1-.3.3.7.7,0,0,1-.6-.7A.3.3,0,0,1,21,28Z" transform="translate(-6.1 -12)"/><path class="cls-1" d="M19,25.1a.9.9,0,0,1-.6-.6c0-.2.1-.4.3-.4a.9.9,0,0,1,.6.6C19.4,24.9,19.3,25.1,19,25.1Z" transform="translate(-6.1 -12)"/><path class="cls-1" d="M22.7,27.8a.9.9,0,0,1-.6-.7c0-.2,0-.4.3-.3s.5.3.6.6S23,27.7,22.7,27.8Z" transform="translate(-6.1 -12)"/><path class="cls-1" d="M20.9,26.4c0,.3-.1.4-.3.4a.7.7,0,0,1-.6-.7c0-.2.1-.4.3-.3A.7.7,0,0,1,20.9,26.4Z" transform="translate(-6.1 -12)"/><path class="cls-1" d="M17,25.6a.9.9,0,0,1,.6.7.3.3,0,0,1-.3.3.7.7,0,0,1-.6-.7C16.7,25.7,16.7,25.6,17,25.6Z" transform="translate(-6.1 -12)"/><path class="cls-1" d="M18.9,28.2c-.3,0-.5-.3-.6-.6s0-.4.3-.4.5.4.6.7S19.2,28.2,18.9,28.2Z" transform="translate(-6.1 -12)"/><path class="cls-1" d="M21,23.4c.1.2,0,.4-.2.3a.7.7,0,0,1-.7-.6c0-.2.1-.4.3-.3S20.9,23.1,21,23.4Z" transform="translate(-6.1 -12)"/><path class="cls-1" d="M22.1,24.5c.3,0,.5.3.6.6s-.1.4-.3.4a.7.7,0,0,1-.6-.7Q21.7,24.5,22.1,24.5Z" transform="translate(-6.1 -12)"/><path class="cls-1" d="M96.7,28.5a5.4,5.4,0,0,1,1.8,4.2A5.5,5.5,0,0,1,96.7,37a7.6,7.6,0,0,1-1.9,1.2,7.8,7.8,0,0,1-2.2.4H87.9v5.8H85.1V26.9h7.5a5.4,5.4,0,0,1,2.2.4A6.2,6.2,0,0,1,96.7,28.5Zm-4.1,7.3a2.9,2.9,0,0,0,2.2-.8,2.8,2.8,0,0,0,1-2.3,2.6,2.6,0,0,0-1-2.2,2.9,2.9,0,0,0-2.2-.9H87.9v6.2Z" transform="translate(-6.1 -12)"/><path class="cls-1" d="M101,44.4H98.2l5-17.5h4.2l5.1,17.5h-2.9l-1.5-5.1-6,1.4Zm4.3-14.8L103,37.7l4.3-1.1Z" transform="translate(-6.1 -12)"/><path class="cls-1" d="M121.8,44.7a18.4,18.4,0,0,1-3.9-.4,12.2,12.2,0,0,1-3.2-.8l1-2.5a20.8,20.8,0,0,0,3.5.7,13.1,13.1,0,0,0,3.8.2l.8-.5a1.9,1.9,0,0,0,.5-1c.1-1-.5-1.8-1.9-2.5l-3.6-1.5-.7-.3-.6-.3c-.2-.1-.4-.1-.4-.2a4.9,4.9,0,0,1-3.2-4.5,4.2,4.2,0,0,1,.9-2.4,3.7,3.7,0,0,1,2.1-1.6c1.1-.5,2.8-.5,5-.1a21.1,21.1,0,0,1,3.8,1l-1,2.6a11,11,0,0,0-3.3-.9,8.4,8.4,0,0,0-3.5-.1,1.6,1.6,0,0,0-1.2,1.6c-.1.8.4,1.5,1.5,1.9l1.7.8,1.8.7,1.9.9a7.2,7.2,0,0,1,2.8,2.3,4.4,4.4,0,0,1,.6,3,4.2,4.2,0,0,1-1.2,2.5,4.1,4.1,0,0,1-2.3,1.3Z" transform="translate(-6.1 -12)"/><path class="cls-1" d="M140.3,26.9v2.7H136V44.4h-2.7V29.6H129V26.9Z" transform="translate(-6.1 -12)"/><path class="cls-1" d="M145.9,41.7h7.5v2.7H143.2V26.9h9.5v2.7h-6.8v4.1h6.3v2.7h-6.3Z" transform="translate(-6.1 -12)"/><path class="cls-1" d="M159.1,41.7h7.5v2.7H156.4V26.9h2.7Z" transform="translate(-6.1 -12)"/><path class="cls-1" d="M172.5,42a1.7,1.7,0,0,1,.5,1.2,1.6,1.6,0,0,1-.5,1.1,1.7,1.7,0,0,1-1.2.6,1.7,1.7,0,0,1-1.2-.5,1.6,1.6,0,0,1-.5-1.2,1.7,1.7,0,0,1,.5-1.3,1.8,1.8,0,0,1,2.4.1Z" transform="translate(-6.1 -12)"/><path class="cls-1" d="M187.1,26.9h2.7V44.4h-3.1l-7.5-12.7V44.4h-2.7V26.9h3.1l7.5,12.7Z" transform="translate(-6.1 -12)"/><path class="cls-1" d="M196.3,41.7h7.5v2.7H193.6V26.9h9.5v2.7h-6.8v4.1h6.3v2.7h-6.3Z" transform="translate(-6.1 -12)"/><path class="cls-1" d="M217,26.9v2.7h-4.2V44.4H210V29.6h-4.2V26.9Z" transform="translate(-6.1 -12)"/><path class="cls-1" d="M114.2,50h.2v1.6h1v.2h-1.2Z" transform="translate(-6.1 -12)"/><path class="cls-1" d="M117.3,51.4h-1l-.2.4h-.2l.8-1.8h.2l.8,1.8h-.2Zm-.1-.2-.4-.9-.4.9Z" transform="translate(-6.1 -12)"/><path class="cls-1" d="M121,50.6a.7.7,0,0,1-.7.7h-.5v.5h-.2V50h.7A.7.7,0,0,1,121,50.6Zm-.3,0a.4.4,0,0,0-.4-.4h-.5V51h.5C120.6,51,120.7,50.9,120.7,50.6Z" transform="translate(-6.1 -12)"/><path class="cls-1" d="M122.9,51.4h-1l-.2.4h-.2l.8-1.8h.2l.8,1.8H123Zm-.1-.2-.4-.9-.4.9Z" transform="translate(-6.1 -12)"/><path class="cls-1" d="M123.9,51.6v-.2l.5.2c.3,0,.5-.1.5-.3s-1.1-.1-1.1-.8.2-.5.7-.5l.6.2v.2l-.5-.2c-.3,0-.4.1-.4.3s1,.2,1,.8-.2.5-.7.5Z" transform="translate(-6.1 -12)"/><path class="cls-1" d="M126.4,50.2h-.6V50h1.4v.2h-.6v1.6h-.2Z" transform="translate(-6.1 -12)"/><path class="cls-1" d="M129.2,51.6v.2H128V50h1.2v.2h-1v.6h.9V51h-.9v.6Z" transform="translate(-6.1 -12)"/><path class="cls-1" d="M130.1,50h.2v1.6h1v.2h-1.2Z" transform="translate(-6.1 -12)"/><path class="cls-1" d="M133.3,51.6v.2H132V50h1.3v.2h-1v.6h.9V51h-.9v.6Z" transform="translate(-6.1 -12)"/><path class="cls-1" d="M135.4,51.8l-.4-.5h-.6v.5h-.2V50h.7a.7.7,0,0,1,.7.6.5.5,0,0,1-.4.6l.4.6Zm0-1.2a.5.5,0,0,0-.5-.4h-.5V51h.5C135.2,51,135.4,50.9,135.4,50.6Z" transform="translate(-6.1 -12)"/><path class="cls-1" d="M136.7,49.6h.4l-.5.3h-.2Zm-.2.4h.2v1.8h-.2Z" transform="translate(-6.1 -12)"/><path class="cls-1" d="M138.8,51.4h-.9l-.2.4h-.3l.8-1.8h.3l.8,1.8H139Zm-.1-.2-.3-.9-.4.9Z" transform="translate(-6.1 -12)"/><path class="cls-1" d="M142.8,51.8V50.5l-.7,1.1H142l-.6-1.1v1.3h-.3V50h.2l.8,1.3.7-1.3h.2v1.8Z" transform="translate(-6.1 -12)"/><path class="cls-1" d="M145.1,51.4h-.9l-.2.4h-.3l.8-1.8h.3l.8,1.8h-.3Zm-.1-.2-.4-.9-.3.9Zm-.3-1.3h-.2l.3-.3h.3Z" transform="translate(-6.1 -12)"/><path class="cls-1" d="M146.1,51.6v-.2l.6.2c.3,0,.4-.1.4-.3s-1-.1-1-.8.2-.5.6-.5l.6.2v.2l-.5-.2c-.3,0-.4.1-.4.3s1.1.2,1.1.8-.2.5-.7.5Z" transform="translate(-6.1 -12)"/><path class="cls-1" d="M149.3,50.9a.9.9,0,0,1,.9-.9.9.9,0,0,1,.7.3h-.2l-.5-.2a.7.7,0,0,0,0,1.4l.5-.2h.2a.9.9,0,0,1-.7.3A.9.9,0,0,1,149.3,50.9Z" transform="translate(-6.1 -12)"/><path class="cls-1" d="M151.5,50.9a.9.9,0,0,1,1-.9.9.9,0,1,1,0,1.8A.9.9,0,0,1,151.5,50.9Zm1.6,0c0-.4-.2-.7-.6-.7a.7.7,0,0,0,0,1.4C152.9,51.6,153.1,51.3,153.1,50.9Z" transform="translate(-6.1 -12)"/><path class="cls-1" d="M155.9,51.8V50.5l-.7,1.1h-.1l-.6-1.1v1.3h-.3V50h.2l.8,1.3.7-1.3h.2v1.8Z" transform="translate(-6.1 -12)"/><path class="cls-1" d="M158.5,50.6a.7.7,0,0,1-.7.7h-.4v.5h-.3V50h.7A.7.7,0,0,1,158.5,50.6Zm-.2,0a.5.5,0,0,0-.5-.4h-.4V51h.4C158.1,51,158.3,50.9,158.3,50.6Z" transform="translate(-6.1 -12)"/><path class="cls-1" d="M159.3,50h.3v1.6h1v.2h-1.3Z" transform="translate(-6.1 -12)"/><path class="cls-1" d="M162.6,51.6v.2h-1.3V50h1.2v.2h-1v.6h.9V51h-.9v.6Z" transform="translate(-6.1 -12)"/><path class="cls-1" d="M163.8,50.2h-.6V50h1.4v.2H164v1.6h-.2Z" transform="translate(-6.1 -12)"/><path class="cls-1" d="M166.4,51.4h-.9l-.2.4H165l.8-1.8h.3l.8,1.8h-.3Zm-.1-.2-.4-.9-.3.9Z" transform="translate(-6.1 -12)"/><path class="cls-1" d="M168.7,50h.8a.9.9,0,1,1,0,1.8h-.8Zm.7,1.6a.7.7,0,1,0,0-1.4H169v1.4Z" transform="translate(-6.1 -12)"/><path class="cls-1" d="M172.5,51.6v.2h-1.3V50h1.3v.2h-1v.6h.9V51h-.9v.6Z" transform="translate(-6.1 -12)"/><path class="cls-1" d="M174.5,50h.3v1.6h.9v.2h-1.2Z" transform="translate(-6.1 -12)"/><path class="cls-1" d="M177.6,51.4h-.9l-.2.4h-.3L177,50h.3l.8,1.8h-.3Zm-.1-.2-.4-.9-.4.9Z" transform="translate(-6.1 -12)"/><path class="cls-1" d="M182.4,50l-.6,1.8h-.3l-.4-1.4-.5,1.4h-.3l-.6-1.8h.3l.5,1.5.4-1.5h.3l.5,1.5.5-1.5Z" transform="translate(-6.1 -12)"/><path class="cls-1" d="M184.4,51.6v.2h-1.2V50h1.2v.2h-1v.6h.9V51h-.9v.6Z" transform="translate(-6.1 -12)"/><path class="cls-1" d="M186.8,51.3c0,.3-.2.5-.7.5h-.8V50h.8c.4,0,.6.2.6.5a.5.5,0,0,1-.2.4C186.7,50.9,186.8,51.1,186.8,51.3Zm-1.3-1.1v.6h.6c.2,0,.4-.1.4-.3s-.2-.3-.4-.3Zm1.1,1.1c0-.2-.2-.3-.5-.3h-.6v.6h.6C186.4,51.6,186.6,51.5,186.6,51.3Z" transform="translate(-6.1 -12)"/></svg>